<svg width="198" height="32" viewBox="0 0 198 32" fill="none" xmlns="http://www.w3.org/2000/svg">
<path d="M1.80664 23.0957C1.80664 27.0996 4.55729 29.1016 10.0586 29.1016C11.1003 29.1016 12.2721 28.9714 13.5742 28.7109C14.9089 28.4831 16.1784 28.1901 17.3828 27.832C18.5872 27.5065 19.9382 27.0671 21.4355 26.5137C22.9329 25.9603 24.2188 25.4557 25.293 25C26.3997 24.5443 27.6693 23.9746 29.1016 23.291C30.5664 22.6074 31.6569 22.0866 32.373 21.7285C33.0892 21.3704 34.0169 20.9147 35.1562 20.3613C36.2956 19.7754 36.9303 19.4499 37.0605 19.3848C37.2559 19.2871 37.3698 19.2383 37.4023 19.2383C37.5651 19.2383 37.6465 19.3522 37.6465 19.5801C37.6465 19.7428 37.5326 19.873 37.3047 19.9707C37.207 20.0358 36.6862 20.3125 35.7422 20.8008C34.7982 21.2565 33.9844 21.6471 33.3008 21.9727C32.6172 22.2982 31.6243 22.7702 30.3223 23.3887C29.0527 23.9746 27.8809 24.4954 26.8066 24.9512C25.7324 25.4069 24.4792 25.9277 23.0469 26.5137C21.6471 27.0671 20.3125 27.5391 19.043 27.9297C17.7734 28.3529 16.4714 28.7435 15.1367 29.1016C13.8346 29.4596 12.5488 29.7363 11.2793 29.9316C10.0423 30.127 8.88672 30.2246 7.8125 30.2246C2.60417 30.2246 0 27.8809 0 23.1934C0 21.2077 0.520833 18.929 1.5625 16.3574C2.63672 13.7858 4.08529 11.2793 5.9082 8.83789C7.73112 6.39648 10.0911 4.3457 12.9883 2.68555C15.918 0.992839 19.0104 0.146484 22.2656 0.146484C24.4466 0.146484 25.5371 1.17188 25.5371 3.22266C25.5371 3.74349 25.3581 4.45964 25 5.37109C24.6419 6.28255 24.2025 6.73828 23.6816 6.73828C23.4212 6.73828 23.2096 6.6569 23.0469 6.49414C22.8841 6.29883 22.8027 6.07096 22.8027 5.81055C22.8027 5.71289 22.9655 5.30599 23.291 4.58984C23.6165 3.84115 23.7793 3.1901 23.7793 2.63672C23.7793 1.6276 23.1771 1.12305 21.9727 1.12305C19.4336 1.12305 17.041 1.66016 14.7949 2.73438C12.5488 3.77604 10.6445 5.12695 9.08203 6.78711C7.55208 8.44727 6.21745 10.2702 5.07812 12.2559C3.97135 14.2415 3.14128 16.1784 2.58789 18.0664C2.06706 19.9219 1.80664 21.5983 1.80664 23.0957ZM45.2574 22.8516C44.1832 21.8424 43.6461 20.3776 43.6461 18.457C43.6461 18.457 43.6461 18.4245 43.6461 18.3594C43.288 18.8151 42.7346 19.3034 41.9859 19.8242C40.749 22.2982 40.1305 24.1374 40.1305 25.3418C40.1305 26.4811 40.456 27.0508 41.107 27.0508C42.4091 27.0508 43.7926 25.651 45.2574 22.8516ZM46.0875 21.0449C46.6734 19.4499 46.9664 18.3105 46.9664 17.627C46.9664 16.8783 46.8199 16.5039 46.527 16.5039C46.2665 16.5039 46.0387 16.6829 45.8434 17.041C45.6806 17.3665 45.5992 17.7734 45.5992 18.2617C45.5992 19.4336 45.762 20.3613 46.0875 21.0449ZM41.4 27.9297C39.6422 27.9297 38.7633 26.8229 38.7633 24.6094C38.7633 22.6888 39.3492 21.0124 40.5211 19.5801C41.693 18.1478 42.6858 17.4316 43.4996 17.4316C43.5647 17.4316 43.6624 17.4642 43.7926 17.5293C43.9553 17.0085 44.232 16.5853 44.6227 16.2598C45.0133 15.9017 45.4853 15.7227 46.0387 15.7227C46.4944 15.7227 46.8688 15.9342 47.1617 16.3574C47.4872 16.7806 47.65 17.3991 47.65 18.2129C47.65 19.3522 47.3245 20.6543 46.6734 22.1191C47.7802 23.584 49.6357 24.3164 52.2398 24.3164C54.1279 24.3164 56.3902 23.9421 59.027 23.1934C61.6637 22.4121 63.6819 21.7122 65.0816 21.0938C66.4814 20.4753 67.7184 19.9056 68.7926 19.3848C68.9879 19.2871 69.1181 19.2383 69.1832 19.2383C69.346 19.2383 69.4273 19.3522 69.4273 19.5801C69.4273 19.7428 69.3134 19.873 69.0855 19.9707C67.3603 20.8496 64.691 21.875 61.0777 23.0469C57.4645 24.1862 54.2092 24.7559 51.3121 24.7559C49.066 24.7559 47.2919 24.349 45.9898 23.5352C44.3948 26.4648 42.8648 27.9297 41.4 27.9297ZM76.1594 17.2852C83.4185 11.8815 87.927 7.37305 89.6848 3.75977C90.2382 2.55534 90.5148 1.72526 90.5148 1.26953C90.5148 1.00911 90.4009 0.878906 90.173 0.878906C88.8059 0.878906 86.7225 2.57161 83.923 5.95703C81.1561 9.3099 78.5682 13.0859 76.1594 17.2852ZM75.1828 18.8965C72.8716 23.1934 71.716 26.3346 71.716 28.3203C71.716 29.4271 72.5298 29.9805 74.1574 29.9805C75.427 29.9805 77.315 29.5085 79.8215 28.5645C82.3605 27.6204 84.5741 26.6927 86.4621 25.7812C88.3501 24.8372 90.8241 23.5677 93.884 21.9727C96.9439 20.3776 98.6203 19.515 98.9133 19.3848C99.1086 19.2871 99.2225 19.2383 99.2551 19.2383C99.4178 19.2383 99.4992 19.3522 99.4992 19.5801C99.4992 19.7428 99.3853 19.873 99.1574 19.9707C98.7342 20.1986 97.6926 20.7357 96.0324 21.582C94.4048 22.3958 93.1027 23.0469 92.1262 23.5352C91.1822 23.9909 89.8638 24.6419 88.1711 25.4883C86.5109 26.3021 85.0786 26.9531 83.8742 27.4414C82.6698 27.9297 81.3677 28.4342 79.968 28.9551C78.6008 29.4759 77.3638 29.8665 76.257 30.127C75.1503 30.3874 74.2063 30.5176 73.425 30.5176C71.0487 30.5176 69.8605 29.4108 69.8605 27.1973C69.8605 25.0488 71.0487 21.7936 73.425 17.4316C75.8013 13.0697 78.6333 9.08203 81.9211 5.46875C85.2089 1.82292 87.927 0 90.0754 0C90.7915 0 91.1496 0.423177 91.1496 1.26953C91.1496 1.95312 90.8566 2.92969 90.2707 4.19922C88.3176 8.20312 83.2883 13.1022 75.1828 18.8965ZM107.11 22.8516C106.036 21.8424 105.499 20.3776 105.499 18.457C105.499 18.457 105.499 18.4245 105.499 18.3594C105.141 18.8151 104.587 19.3034 103.839 19.8242C102.602 22.2982 101.983 24.1374 101.983 25.3418C101.983 26.4811 102.309 27.0508 102.96 27.0508C104.262 27.0508 105.645 25.651 107.11 22.8516ZM107.94 21.0449C108.526 19.4499 108.819 18.3105 108.819 17.627C108.819 16.8783 108.673 16.5039 108.38 16.5039C108.119 16.5039 107.891 16.6829 107.696 17.041C107.533 17.3665 107.452 17.7734 107.452 18.2617C107.452 19.4336 107.615 20.3613 107.94 21.0449ZM103.253 27.9297C101.495 27.9297 100.616 26.8229 100.616 24.6094C100.616 22.6888 101.202 21.0124 102.374 19.5801C103.546 18.1478 104.539 17.4316 105.352 17.4316C105.417 17.4316 105.515 17.4642 105.645 17.5293C105.808 17.0085 106.085 16.5853 106.475 16.2598C106.866 15.9017 107.338 15.7227 107.891 15.7227C108.347 15.7227 108.721 15.9342 109.014 16.3574C109.34 16.7806 109.503 17.3991 109.503 18.2129C109.503 19.3522 109.177 20.6543 108.526 22.1191C109.633 23.584 111.488 24.3164 114.093 24.3164C115.981 24.3164 118.243 23.9421 120.88 23.1934C123.516 22.4121 125.535 21.7122 126.934 21.0938C128.334 20.4753 129.571 19.9056 130.645 19.3848C130.841 19.2871 130.971 19.2383 131.036 19.2383C131.199 19.2383 131.28 19.3522 131.28 19.5801C131.28 19.7428 131.166 19.873 130.938 19.9707C129.213 20.8496 126.544 21.875 122.93 23.0469C119.317 24.1862 116.062 24.7559 113.165 24.7559C110.919 24.7559 109.145 24.349 107.843 23.5352C106.248 26.4648 104.718 27.9297 103.253 27.9297ZM139.868 24.0723C139.868 23.6165 140.144 22.819 140.698 21.6797C141.284 20.5078 141.577 19.7266 141.577 19.3359C141.577 19.0755 141.446 18.8639 141.186 18.7012C140.958 18.5059 140.519 18.2943 139.868 18.0664C139.249 17.8385 138.875 17.6921 138.745 17.627C137.605 18.5059 136.287 19.2871 134.789 19.9707C134.659 20.0358 134.545 20.0684 134.448 20.0684C134.285 20.0684 134.204 19.9707 134.204 19.7754C134.204 19.6126 134.317 19.4824 134.545 19.3848C135.88 18.7988 137.068 18.0501 138.11 17.1387C137.914 16.9434 137.817 16.7318 137.817 16.5039C137.817 15.9505 138.207 15.2669 138.989 14.4531C139.77 13.6068 140.421 13.1836 140.942 13.1836C141.365 13.1836 141.577 13.3301 141.577 13.623C141.577 14.5996 140.909 15.6901 139.575 16.8945C139.802 17.1875 140.519 17.6107 141.723 18.1641C142.927 18.6849 143.53 19.2057 143.53 19.7266C143.53 20.0846 143.253 20.8822 142.7 22.1191C142.146 23.3236 141.87 24.1374 141.87 24.5605C141.87 25.4069 142.179 25.8301 142.797 25.8301C145.043 25.8301 148.038 25.2767 151.782 24.1699C155.525 23.0632 158.504 22.0703 160.717 21.1914C162.931 20.3125 164.363 19.7103 165.014 19.3848C165.209 19.2871 165.323 19.2383 165.356 19.2383C165.519 19.2383 165.6 19.3522 165.6 19.5801C165.6 19.7428 165.486 19.873 165.258 19.9707C164.607 20.2637 163.093 20.8496 160.717 21.7285C158.373 22.5749 155.297 23.5352 151.489 24.6094C147.713 25.6836 144.832 26.2207 142.846 26.2207C140.86 26.2207 139.868 25.5046 139.868 24.0723ZM173.748 28.0762C170.07 28.5645 168.23 29.1341 168.23 29.7852C168.23 30.306 168.816 30.5664 169.988 30.5664C170.932 30.5664 171.795 30.3711 172.576 29.9805C173.357 29.6224 173.748 29.069 173.748 28.3203V28.0762ZM196.746 19.9707C188.478 24.4954 181.723 27.0671 176.482 27.6855L175.018 27.8809V28.1738C175.018 29.1504 174.529 29.8991 173.553 30.4199C172.576 30.9733 171.469 31.25 170.232 31.25C168.312 31.25 167.352 30.599 167.352 29.2969C167.352 28.7109 169.451 28.1576 173.65 27.6367C173.423 26.7904 172.544 25.4557 171.014 23.6328C169.516 21.8099 168.768 20.5241 168.768 19.7754C168.768 18.9616 169.207 18.2292 170.086 17.5781C170.997 16.8945 171.893 16.5527 172.771 16.5527C173.488 16.5527 173.846 16.6667 173.846 16.8945C173.846 17.0247 173.667 17.1712 173.309 17.334C172.983 17.4967 172.576 17.7246 172.088 18.0176C171.6 18.3105 171.242 18.6523 171.014 19.043C170.883 19.2708 170.818 19.515 170.818 19.7754C170.818 20.4915 171.469 21.6634 172.771 23.291C174.074 24.9186 174.806 26.2858 174.969 27.3926L176.189 27.2461C182.342 26.1393 189.113 23.5189 196.502 19.3848C196.697 19.2871 196.811 19.2383 196.844 19.2383C197.039 19.2383 197.137 19.3522 197.137 19.5801C197.137 19.7428 197.007 19.873 196.746 19.9707Z" fill="#D7CBB7"/>
</svg>
