<svg width="119" height="31" viewBox="0 0 119 31" fill="none" xmlns="http://www.w3.org/2000/svg">
<path d="M11.8164 11.5723C10.319 13.916 8.52865 17.0898 6.44531 21.0938C4.36198 25.0651 2.66927 28.0273 1.36719 29.9805C1.26953 30.1107 1.10677 30.1758 0.878906 30.1758C0.683594 30.1758 0.488281 30.0944 0.292969 29.9316C0.0976562 29.8014 0 29.6387 0 29.4434C0 29.4108 0.0325521 29.2969 0.0976562 29.1016C1.33464 26.6927 2.89714 23.8281 4.78516 20.5078C6.70573 17.1875 8.34961 14.1764 9.7168 11.4746C11.1165 8.77279 12.3698 5.92448 13.4766 2.92969L13.9648 1.5625L12.8906 2.29492C11.5234 3.23893 10.4167 4.05273 9.57031 4.73633C8.72396 5.41992 7.77995 6.28255 6.73828 7.32422C5.72917 8.33333 4.96419 9.39128 4.44336 10.498C3.95508 11.6048 3.71094 12.7604 3.71094 13.9648C3.71094 14.4531 3.61328 14.8438 3.41797 15.1367C3.22266 15.3971 3.02734 15.5273 2.83203 15.5273C2.63672 15.5273 2.44141 15.3646 2.24609 15.0391C2.08333 14.681 2.00195 14.2904 2.00195 13.8672C2.00195 10.3841 5.40365 6.26628 12.207 1.51367C13.5417 0.569661 14.4694 0.0976562 14.9902 0.0976562C15.5111 0.0976562 15.7715 0.520833 15.7715 1.36719C15.7715 2.11589 15.2181 3.82487 14.1113 6.49414L13.4277 8.1543L14.5508 6.88477C15.8529 5.41992 17.8874 3.90625 20.6543 2.34375C23.4538 0.78125 25.765 0 27.5879 0C29.1178 0 29.8828 0.732422 29.8828 2.19727C29.8828 3.66211 29.2643 5.63151 28.0273 8.10547C26.8229 10.5469 25.472 12.8418 23.9746 14.9902C22.5098 17.1387 21.1589 19.2546 19.9219 21.3379C18.7174 23.3887 18.1152 24.7884 18.1152 25.5371C18.1152 26.1556 18.6198 26.4648 19.6289 26.4648C20.8333 26.4648 23.9909 25.6836 29.1016 24.1211C34.2122 22.526 38.5091 20.9147 41.9922 19.2871C42.1875 19.1895 42.3177 19.1406 42.3828 19.1406C42.5456 19.1406 42.627 19.2546 42.627 19.4824C42.627 19.6452 42.513 19.7754 42.2852 19.873C38.6068 21.5658 34.0983 23.2259 28.7598 24.8535C23.4538 26.4811 20.1497 27.2949 18.8477 27.2949C16.7969 27.2949 15.7715 26.7415 15.7715 25.6348C15.7715 25.1465 16.7806 23.3236 18.7988 20.166C20.8496 16.9759 22.8841 13.6393 24.9023 10.1562C26.9531 6.64062 27.9785 4.23177 27.9785 2.92969C27.9785 2.14844 27.6042 1.75781 26.8555 1.75781C24.8047 1.75781 22.2005 2.75065 19.043 4.73633C15.8854 6.72201 13.4766 9.00065 11.8164 11.5723ZM45.7457 20.7031C45.5504 21.0286 45.4527 21.3542 45.4527 21.6797C45.4527 22.168 45.8434 22.4121 46.6246 22.4121C47.8941 22.4121 48.9846 22.0215 49.8961 21.2402C50.8401 20.4264 51.3121 19.6615 51.3121 18.9453C51.3121 18.3919 50.9215 18.1152 50.1402 18.1152C49.2613 18.1152 48.415 18.3594 47.6012 18.8477C46.7874 19.3034 46.1689 19.9219 45.7457 20.7031ZM51.4098 16.748C52.6142 16.748 53.2164 17.2363 53.2164 18.2129C53.2164 19.2871 52.5491 20.3776 51.2145 21.4844C49.8798 22.5911 48.2522 23.1445 46.3316 23.1445C45.6155 23.1445 45.0784 23.0306 44.7203 22.8027C44.6552 23.1934 44.6227 23.5026 44.6227 23.7305C44.6227 24.7396 45.0458 25.5697 45.8922 26.2207C46.7385 26.8392 48.0569 27.1484 49.8473 27.1484C54.8603 27.1484 62.5589 24.6419 72.943 19.6289C73.2685 19.4661 73.4964 19.3522 73.6266 19.2871C73.8219 19.1895 73.9358 19.1406 73.9684 19.1406C74.1637 19.1406 74.2613 19.2546 74.2613 19.4824C74.2613 19.6452 74.1311 19.7754 73.8707 19.873C70.4853 21.696 66.4488 23.4863 61.7613 25.2441C57.1064 26.9694 53.0374 27.832 49.5543 27.832C47.178 27.832 45.4202 27.474 44.2809 26.7578C43.1415 26.0417 42.5719 25.1139 42.5719 23.9746C42.5719 22.3145 43.5159 20.7031 45.4039 19.1406C47.2594 17.5456 49.2613 16.748 51.4098 16.748ZM82.9953 28.418C81.6932 28.418 81.0422 27.7344 81.0422 26.3672C81.0422 25.5859 81.2375 24.349 81.6281 22.6562C82.0188 20.9635 82.2141 19.873 82.2141 19.3848C82.2141 18.7663 82.0676 18.457 81.7746 18.457C81.384 18.457 80.8469 18.571 80.1633 18.7988C79.5122 19.0267 78.9589 19.2708 78.5031 19.5312L77.7707 19.873C77.6405 19.9382 77.5266 19.9707 77.4289 19.9707C77.2661 19.9707 77.1848 19.873 77.1848 19.6777C77.1848 19.515 77.2987 19.3848 77.5266 19.2871C79.3495 18.3757 80.8794 17.9199 82.1164 17.9199C83.451 17.9199 84.1184 18.4408 84.1184 19.4824C84.1184 20.1009 83.9068 21.2077 83.4836 22.8027C83.0604 24.3978 82.8488 25.5208 82.8488 26.1719C82.8488 27.0833 83.0441 27.5391 83.4348 27.5391C83.8254 27.5391 84.4602 27.0833 85.3391 26.1719C86.218 25.2604 87.0155 24.235 87.7316 23.0957C87.7967 22.7051 87.8619 22.2493 87.927 21.7285C87.9921 21.2077 88.0409 20.8008 88.0734 20.5078C88.1385 20.2148 88.1711 20.0033 88.1711 19.873C88.1711 19.6777 88.3013 19.4824 88.5617 19.2871C88.8547 19.0592 89.1151 18.9453 89.343 18.9453C89.6359 18.9453 89.7824 19.1081 89.7824 19.4336C89.7824 19.7266 89.6359 20.459 89.343 21.6309C88.7896 24.0723 88.5129 25.7812 88.5129 26.7578C88.5129 27.7018 88.7245 28.1738 89.1477 28.1738C89.6034 28.1738 90.3358 27.5716 91.3449 26.3672C92.354 25.1302 93.2818 23.7467 94.1281 22.2168C92.826 20.9147 92.175 19.4987 92.175 17.9688C92.175 16.3086 92.9563 15.4785 94.5188 15.4785C95.6906 15.4785 96.2766 16.2435 96.2766 17.7734C96.2766 18.8477 95.9673 20.1497 95.3488 21.6797C96.5207 23.3073 98.2948 24.1211 100.671 24.1211C102.592 24.1211 104.903 23.7467 107.605 22.998C110.307 22.2168 112.357 21.5332 113.757 20.9473C115.189 20.3288 116.426 19.7754 117.468 19.2871C117.663 19.1895 117.777 19.1406 117.81 19.1406C117.973 19.1406 118.054 19.2546 118.054 19.4824C118.054 19.6452 117.94 19.7754 117.712 19.873C115.889 20.7845 113.22 21.8099 109.704 22.9492C106.189 24.056 102.999 24.6094 100.134 24.6094C98.0181 24.6094 96.2277 24.0072 94.7629 22.8027C93.884 24.4303 92.8586 25.8464 91.6867 27.0508C90.5148 28.2552 89.5871 28.8574 88.9035 28.8574C87.9595 28.8574 87.4875 27.946 87.4875 26.123C87.4875 25.9603 87.4875 25.7161 87.4875 25.3906C87.5201 25.0651 87.5363 24.821 87.5363 24.6582C86.7551 25.6999 85.9087 26.5788 84.9973 27.2949C84.1184 28.0436 83.451 28.418 82.9953 28.418ZM94.7629 20.8008C95.3814 19.401 95.6906 18.3431 95.6906 17.627C95.6906 16.8457 95.4465 16.4551 94.9582 16.4551C94.7303 16.4551 94.5188 16.569 94.3234 16.7969C94.1607 16.9922 94.0793 17.2526 94.0793 17.5781C94.0793 18.8151 94.3072 19.8893 94.7629 20.8008Z" fill="#D7CBB7"/>
</svg>
