<svg width="230" height="33" viewBox="0 0 230 33" fill="none" xmlns="http://www.w3.org/2000/svg">
<path d="M12.9883 16.9922C12.0117 16.9922 11.5234 16.7318 11.5234 16.2109C11.5234 16.1133 11.8652 16.0156 12.5488 15.918C13.2324 15.8203 14.3555 15.5762 15.918 15.1855C17.513 14.7949 19.1406 14.2415 20.8008 13.5254C23.9258 12.1908 26.237 10.6283 27.7344 8.83789C29.2643 7.01497 30.0293 5.45247 30.0293 4.15039C30.0293 2.16471 29.3457 1.17188 27.9785 1.17188C26.7741 1.17188 25.0814 1.93685 22.9004 3.4668C20.7194 4.99674 18.8965 6.44531 17.4316 7.8125C15.9993 9.14714 15.0391 10.1074 14.5508 10.6934C12.5977 13.0697 10.3027 16.4714 7.66602 20.8984C5.06185 25.3255 2.96224 28.6458 1.36719 30.8594C1.26953 30.9896 1.10677 31.0547 0.878906 31.0547C0.683594 31.0547 0.488281 30.9733 0.292969 30.8105C0.0976562 30.6803 0 30.5176 0 30.3223C0 30.1595 0.0325521 30.0456 0.0976562 29.9805C1.33464 27.5716 2.89714 24.707 4.78516 21.3867C6.67318 18.0664 8.30078 15.0553 9.66797 12.3535C11.0677 9.61914 12.3372 6.77083 13.4766 3.80859L13.9648 2.44141L12.8906 3.17383C11.5234 4.11784 10.4167 4.93164 9.57031 5.61523C8.72396 6.29883 7.77995 7.16146 6.73828 8.20312C5.72917 9.21224 4.96419 10.2702 4.44336 11.377C3.95508 12.4837 3.71094 13.6393 3.71094 14.8438C3.71094 15.332 3.61328 15.7227 3.41797 16.0156C3.22266 16.276 3.02734 16.4062 2.83203 16.4062C2.63672 16.4062 2.44141 16.2435 2.24609 15.918C2.08333 15.5599 2.00195 15.1693 2.00195 14.7461C2.00195 13.6068 2.34375 12.4186 3.02734 11.1816C3.71094 9.94466 4.6224 8.77279 5.76172 7.66602C6.93359 6.52669 8.02409 5.55013 9.0332 4.73633C10.0423 3.92253 11.1003 3.14128 12.207 2.39258C13.5417 1.44857 14.4694 0.976562 14.9902 0.976562C15.5111 0.976562 15.7715 1.39974 15.7715 2.24609C15.7715 3.15755 14.9577 5.46875 13.3301 9.17969L12.3047 11.4258L13.6719 9.66797C15.2018 7.58464 17.5293 5.45247 20.6543 3.27148C23.7793 1.09049 26.3835 0 28.4668 0C30.6803 0 31.7871 1.41602 31.7871 4.24805C31.7871 6.03841 30.8105 7.91016 28.8574 9.86328C26.9043 11.7839 24.4954 13.4115 21.6309 14.7461C18.0501 16.2435 15.1693 16.9922 12.9883 16.9922ZM46.6734 24.8535C46.6734 24.3978 46.9501 23.6003 47.5035 22.4609C48.0895 21.2891 48.3824 20.5078 48.3824 20.1172C48.3824 19.8568 48.2522 19.6452 47.9918 19.4824C47.7639 19.2871 47.3245 19.0755 46.6734 18.8477C46.0549 18.6198 45.6806 18.4733 45.5504 18.4082C44.4111 19.2871 43.0927 20.0684 41.5953 20.752C41.4651 20.8171 41.3512 20.8496 41.2535 20.8496C41.0908 20.8496 41.0094 20.752 41.0094 20.5566C41.0094 20.3939 41.1233 20.2637 41.3512 20.166C42.6858 19.5801 43.874 18.8314 44.9156 17.9199C44.7203 17.7246 44.6227 17.513 44.6227 17.2852C44.6227 16.7318 45.0133 16.0482 45.7945 15.2344C46.5758 14.388 47.2268 13.9648 47.7477 13.9648C48.1708 13.9648 48.3824 14.1113 48.3824 14.4043C48.3824 15.3809 47.7151 16.4714 46.3805 17.6758C46.6083 17.9688 47.3245 18.3919 48.5289 18.9453C49.7333 19.4661 50.3355 19.987 50.3355 20.5078C50.3355 20.8659 50.0589 21.6634 49.5055 22.9004C48.9521 24.1048 48.6754 24.9186 48.6754 25.3418C48.6754 26.1882 48.9846 26.6113 49.6031 26.6113C51.8492 26.6113 54.844 26.0579 58.5875 24.9512C62.331 23.8444 65.3095 22.8516 67.523 21.9727C69.7366 21.0938 71.1689 20.4915 71.8199 20.166C72.0152 20.0684 72.1292 20.0195 72.1617 20.0195C72.3245 20.0195 72.4059 20.1335 72.4059 20.3613C72.4059 20.5241 72.2919 20.6543 72.0641 20.752C71.413 21.0449 69.8994 21.6309 67.523 22.5098C65.1793 23.3561 62.1031 24.3164 58.2945 25.3906C54.5185 26.4648 51.6376 27.002 49.652 27.002C47.6663 27.002 46.6734 26.2858 46.6734 24.8535ZM80.0168 23.6328C78.9426 22.6237 78.4055 21.1589 78.4055 19.2383C78.4055 19.2383 78.4055 19.2057 78.4055 19.1406C78.0474 19.5964 77.494 20.0846 76.7453 20.6055C75.5083 23.0794 74.8898 24.9186 74.8898 26.123C74.8898 27.2624 75.2154 27.832 75.8664 27.832C77.1685 27.832 78.552 26.4323 80.0168 23.6328ZM80.8469 21.8262C81.4328 20.2311 81.7258 19.0918 81.7258 18.4082C81.7258 17.6595 81.5793 17.2852 81.2863 17.2852C81.0259 17.2852 80.798 17.4642 80.6027 17.8223C80.44 18.1478 80.3586 18.5547 80.3586 19.043C80.3586 20.2148 80.5214 21.1426 80.8469 21.8262ZM76.1594 28.7109C74.4016 28.7109 73.5227 27.6042 73.5227 25.3906C73.5227 23.4701 74.1086 21.7936 75.2805 20.3613C76.4523 18.929 77.4452 18.2129 78.259 18.2129C78.3241 18.2129 78.4217 18.2454 78.552 18.3105C78.7147 17.7897 78.9914 17.3665 79.382 17.041C79.7727 16.6829 80.2447 16.5039 80.798 16.5039C81.2538 16.5039 81.6281 16.7155 81.9211 17.1387C82.2466 17.5618 82.4094 18.1803 82.4094 18.9941C82.4094 20.1335 82.0839 21.4355 81.4328 22.9004C82.5396 24.3652 84.3951 25.0977 86.9992 25.0977C88.8872 25.0977 91.1496 24.7233 93.7863 23.9746C96.423 23.1934 98.4413 22.4935 99.841 21.875C101.241 21.2565 102.478 20.6868 103.552 20.166C103.747 20.0684 103.877 20.0195 103.943 20.0195C104.105 20.0195 104.187 20.1335 104.187 20.3613C104.187 20.5241 104.073 20.6543 103.845 20.752C102.12 21.6309 99.4504 22.6562 95.8371 23.8281C92.2238 24.9674 88.9686 25.5371 86.0715 25.5371C83.8254 25.5371 82.0513 25.1302 80.7492 24.3164C79.1542 27.2461 77.6242 28.7109 76.1594 28.7109ZM134.259 20.752C133.803 20.9473 133.184 21.224 132.403 21.582C131.654 21.9076 130.173 22.5098 127.96 23.3887C125.779 24.235 123.679 25 121.661 25.6836C119.675 26.3346 117.478 26.9206 115.069 27.4414C112.693 27.9948 110.675 28.2715 109.014 28.2715C107.289 28.2715 106.003 27.9297 105.157 27.2461C104.278 26.5299 103.839 25.6022 103.839 24.4629C103.839 23.1283 104.685 21.8587 106.378 20.6543C108.038 19.4499 110.072 18.8477 112.481 18.8477C113.751 18.8477 114.386 19.1406 114.386 19.7266C114.386 20.4753 113.669 20.8496 112.237 20.8496C112.139 20.8496 112.091 20.8008 112.091 20.7031C112.091 20.638 112.139 20.5241 112.237 20.3613C112.367 20.1986 112.432 20.0846 112.432 20.0195C112.432 19.7591 112.302 19.6289 112.042 19.6289C110.284 19.6289 108.835 20.0846 107.696 20.9961C106.589 21.875 106.036 22.8353 106.036 23.877C106.036 24.9837 106.378 25.8952 107.061 26.6113C107.745 27.3275 108.754 27.6855 110.089 27.6855C112.595 27.6855 115.834 27.0671 119.805 25.8301C123.809 24.5605 127.179 23.3073 129.913 22.0703L134.014 20.166C134.21 20.0684 134.324 20.0195 134.356 20.0195C134.519 20.0195 134.6 20.1335 134.6 20.3613C134.6 20.5241 134.486 20.6543 134.259 20.752ZM137.719 21.582C137.524 21.9076 137.426 22.2331 137.426 22.5586C137.426 23.0469 137.817 23.291 138.598 23.291C139.868 23.291 140.958 22.9004 141.87 22.1191C142.814 21.3053 143.286 20.5404 143.286 19.8242C143.286 19.2708 142.895 18.9941 142.114 18.9941C141.235 18.9941 140.388 19.2383 139.575 19.7266C138.761 20.1823 138.142 20.8008 137.719 21.582ZM143.383 17.627C144.588 17.627 145.19 18.1152 145.19 19.0918C145.19 20.166 144.523 21.2565 143.188 22.3633C141.853 23.4701 140.226 24.0234 138.305 24.0234C137.589 24.0234 137.052 23.9095 136.694 23.6816C136.629 24.0723 136.596 24.3815 136.596 24.6094C136.596 25.6185 137.019 26.4486 137.866 27.0996C138.712 27.7181 140.03 28.0273 141.821 28.0273C146.834 28.0273 154.532 25.5208 164.916 20.5078C165.242 20.3451 165.47 20.2311 165.6 20.166C165.795 20.0684 165.909 20.0195 165.942 20.0195C166.137 20.0195 166.235 20.1335 166.235 20.3613C166.235 20.5241 166.105 20.6543 165.844 20.752C162.459 22.5749 158.422 24.3652 153.735 26.123C149.08 27.8483 145.011 28.7109 141.528 28.7109C139.151 28.7109 137.394 28.3529 136.254 27.6367C135.115 26.9206 134.545 25.9928 134.545 24.8535C134.545 23.1934 135.489 21.582 137.377 20.0195C139.233 18.4245 141.235 17.627 143.383 17.627ZM174.383 28.8574C170.704 29.3457 168.865 29.9154 168.865 30.5664C168.865 31.0872 169.451 31.3477 170.623 31.3477C171.567 31.3477 172.43 31.1523 173.211 30.7617C173.992 30.4036 174.383 29.8503 174.383 29.1016V28.8574ZM197.381 20.752C189.113 25.2767 182.358 27.8483 177.117 28.4668L175.652 28.6621V28.9551C175.652 29.9316 175.164 30.6803 174.188 31.2012C173.211 31.7546 172.104 32.0312 170.867 32.0312C168.947 32.0312 167.986 31.3802 167.986 30.0781C167.986 29.4922 170.086 28.9388 174.285 28.418C174.057 27.5716 173.178 26.237 171.648 24.4141C170.151 22.5911 169.402 21.3053 169.402 20.5566C169.402 19.7428 169.842 19.0104 170.721 18.3594C171.632 17.6758 172.527 17.334 173.406 17.334C174.122 17.334 174.48 17.4479 174.48 17.6758C174.48 17.806 174.301 17.9525 173.943 18.1152C173.618 18.278 173.211 18.5059 172.723 18.7988C172.234 19.0918 171.876 19.4336 171.648 19.8242C171.518 20.0521 171.453 20.2962 171.453 20.5566C171.453 21.2728 172.104 22.4447 173.406 24.0723C174.708 25.6999 175.441 27.0671 175.604 28.1738L176.824 28.0273C182.977 26.9206 189.747 24.3001 197.137 20.166C197.332 20.0684 197.446 20.0195 197.479 20.0195C197.674 20.0195 197.771 20.1335 197.771 20.3613C197.771 20.5241 197.641 20.6543 197.381 20.752ZM205.92 28.8574C202.241 29.3457 200.402 29.9154 200.402 30.5664C200.402 31.0872 200.988 31.3477 202.16 31.3477C203.104 31.3477 203.966 31.1523 204.748 30.7617C205.529 30.4036 205.92 29.8503 205.92 29.1016V28.8574ZM228.918 20.752C220.649 25.2767 213.895 27.8483 208.654 28.4668L207.189 28.6621V28.9551C207.189 29.9316 206.701 30.6803 205.724 31.2012C204.748 31.7546 203.641 32.0312 202.404 32.0312C200.483 32.0312 199.523 31.3802 199.523 30.0781C199.523 29.4922 201.623 28.9388 205.822 28.418C205.594 27.5716 204.715 26.237 203.185 24.4141C201.688 22.5911 200.939 21.3053 200.939 20.5566C200.939 19.7428 201.379 19.0104 202.257 18.3594C203.169 17.6758 204.064 17.334 204.943 17.334C205.659 17.334 206.017 17.4479 206.017 17.6758C206.017 17.806 205.838 17.9525 205.48 18.1152C205.155 18.278 204.748 18.5059 204.259 18.7988C203.771 19.0918 203.413 19.4336 203.185 19.8242C203.055 20.0521 202.99 20.2962 202.99 20.5566C202.99 21.2728 203.641 22.4447 204.943 24.0723C206.245 25.6999 206.977 27.0671 207.14 28.1738L208.361 28.0273C214.513 26.9206 221.284 24.3001 228.673 20.166C228.869 20.0684 228.983 20.0195 229.015 20.0195C229.211 20.0195 229.308 20.1335 229.308 20.3613C229.308 20.5241 229.178 20.6543 228.918 20.752Z" fill="#D7CBB7"/>
</svg>
