<svg width="200" height="59" viewBox="0 0 200 59" fill="none" xmlns="http://www.w3.org/2000/svg">
<path d="M32.8906 41.0938C28.4115 42.3958 24.7135 43.5156 21.7969 44.4531C18.9323 45.4427 15.9375 46.5365 12.8125 47.7344C9.6875 48.9844 7.36979 50.2083 5.85938 51.4062C4.29688 52.6042 3.51562 53.776 3.51562 54.9219C3.51562 56.1719 5.3125 56.7969 8.90625 56.7969C14.375 56.7969 19.2969 55.2083 23.6719 52.0312C28.099 48.8542 31.1719 45.2083 32.8906 41.0938ZM38.5156 4.21875C38.5156 2.70833 37.9427 1.95312 36.7969 1.95312C34.401 1.95312 30.8594 4.11458 26.1719 8.4375C21.5365 12.7604 19.2188 16.0677 19.2188 18.3594C19.2188 19.7656 19.8438 20.9635 21.0938 21.9531C22.3958 22.8906 23.9583 23.724 25.7812 24.4531C27.6562 25.1302 29.5052 25.9115 31.3281 26.7969C33.151 27.6823 34.6875 29.0365 35.9375 30.8594C37.2396 32.6302 37.8906 34.8177 37.8906 37.4219C37.8906 38.099 37.8646 38.5677 37.8125 38.8281C48.6458 35.651 55.9375 33.0469 59.6875 31.0156C60 30.8594 60.1823 30.7812 60.2344 30.7812C60.4948 30.7812 60.625 30.9635 60.625 31.3281C60.625 31.5885 60.4427 31.7969 60.0781 31.9531C56.6927 33.8281 49.1927 36.5365 37.5781 40.0781C36.3802 44.7135 32.8646 48.9062 27.0312 52.6562C21.1979 56.4583 14.1146 58.3594 5.78125 58.3594C1.92708 58.3594 0 57.526 0 55.8594C0 54.8698 0.416667 53.8802 1.25 52.8906C2.03125 51.901 3.30729 50.9115 5.07812 49.9219C6.84896 48.9844 8.59375 48.125 10.3125 47.3438C12.0833 46.5625 14.4531 45.6771 17.4219 44.6875C20.4427 43.6979 22.9688 42.8906 25 42.2656C27.0833 41.6406 29.8698 40.8333 33.3594 39.8438C33.8281 38.4896 34.0625 37.1875 34.0625 35.9375C34.0625 33.9062 33.4375 32.2396 32.1875 30.9375C30.9375 29.5833 29.401 28.5677 27.5781 27.8906C25.8073 27.2135 24.0104 26.5365 22.1875 25.8594C20.4167 25.1823 18.9062 24.2448 17.6562 23.0469C16.4062 21.7969 15.7812 20.2344 15.7812 18.3594C15.7812 16.3802 17.0573 13.9583 19.6094 11.0938C22.1615 8.22917 25.1562 5.72917 28.5938 3.59375C32.0833 1.45833 34.974 0.390625 37.2656 0.390625C39.9219 0.390625 41.25 1.97917 41.25 5.15625C41.25 5.98958 40.9635 7.13542 40.3906 8.59375C39.8698 10.0521 39.1927 10.7812 38.3594 10.7812C37.9427 10.7812 37.5781 10.651 37.2656 10.3906C37.0052 10.0781 36.875 9.71354 36.875 9.29688C36.875 9.14062 37.1354 8.48958 37.6562 7.34375C38.2292 6.14583 38.5156 5.10417 38.5156 4.21875ZM112.656 31.9531C99.3229 38.6198 89.401 41.9531 82.8906 41.9531C79.9219 41.9531 77.6302 41.3542 76.0156 40.1562C74.4531 38.9062 73.6719 36.7708 73.6719 33.75C73.6719 33.2292 73.4896 32.9688 73.125 32.9688C72.0312 32.9688 69.349 33.8542 65.0781 35.625C60.8073 37.3958 58.3333 38.2812 57.6562 38.2812C56.6146 38.2812 55.7292 38.0469 55 37.5781C54.2708 37.1094 53.9062 36.5625 53.9062 35.9375C53.9062 33.8021 55.8073 32.1094 59.6094 30.8594C63.3594 29.6094 67.0573 28.9844 70.7031 28.9844C71.1198 28.9844 71.5885 29.0885 72.1094 29.2969C72.6823 29.5052 72.9688 29.6875 72.9688 29.8438C72.9688 30 72.6823 30.0781 72.1094 30.0781C68.8281 30.0781 66.0417 30.4167 63.75 31.0938C61.4583 31.7708 59.9219 32.5 59.1406 33.2812C58.3073 34.0104 57.8906 34.6875 57.8906 35.3125C57.8906 35.7812 58.2031 36.0156 58.8281 36.0156C59.9219 36.0156 62.474 35.2604 66.4844 33.75C70.5469 32.2396 72.8385 31.4844 73.3594 31.4844C73.6198 31.4844 74.3229 31.9271 75.4688 32.8125C76.6146 33.6458 77.1875 34.349 77.1875 34.9219C77.1875 37.3177 77.6042 38.9844 78.4375 39.9219C79.2708 40.8594 80.599 41.3281 82.4219 41.3281C84.7135 41.3281 87.5 40.8594 90.7812 39.9219C94.1146 38.9323 97.0312 37.9167 99.5312 36.875C102.031 35.7812 104.688 34.5833 107.5 33.2812C110.312 31.9271 111.901 31.1719 112.266 31.0156C112.578 30.8594 112.76 30.7812 112.812 30.7812C113.073 30.7812 113.203 30.9635 113.203 31.3281C113.203 31.5885 113.021 31.7969 112.656 31.9531ZM117.734 27.6562C129.349 19.0104 136.562 11.7969 139.375 6.01562C140.26 4.08854 140.703 2.76042 140.703 2.03125C140.703 1.61458 140.521 1.40625 140.156 1.40625C137.969 1.40625 134.635 4.11458 130.156 9.53125C125.729 14.8958 121.589 20.9375 117.734 27.6562ZM116.172 30.2344C112.474 37.1094 110.625 42.1354 110.625 45.3125C110.625 47.0833 111.927 47.9688 114.531 47.9688C116.562 47.9688 119.583 47.2135 123.594 45.7031C127.656 44.1927 131.198 42.7083 134.219 41.25C137.24 39.7396 141.198 37.7083 146.094 35.1562C150.99 32.6042 153.672 31.224 154.141 31.0156C154.453 30.8594 154.635 30.7812 154.688 30.7812C154.948 30.7812 155.078 30.9635 155.078 31.3281C155.078 31.5885 154.896 31.7969 154.531 31.9531C153.854 32.3177 152.188 33.1771 149.531 34.5312C146.927 35.8333 144.844 36.875 143.281 37.6562C141.771 38.3854 139.661 39.4271 136.953 40.7812C134.297 42.0833 132.005 43.125 130.078 43.9062C128.151 44.6875 126.068 45.4948 123.828 46.3281C121.641 47.1615 119.661 47.7865 117.891 48.2031C116.12 48.6198 114.609 48.8281 113.359 48.8281C109.557 48.8281 107.656 47.0573 107.656 43.5156C107.656 40.0781 109.557 34.8698 113.359 27.8906C117.161 20.9115 121.693 14.5312 126.953 8.75C132.214 2.91667 136.562 0 140 0C141.146 0 141.719 0.677083 141.719 2.03125C141.719 3.125 141.25 4.6875 140.312 6.71875C137.188 13.125 129.141 20.9635 116.172 30.2344ZM153.828 33.2812C153.516 33.8021 153.359 34.3229 153.359 34.8438C153.359 35.625 153.984 36.0156 155.234 36.0156C157.266 36.0156 159.01 35.3906 160.469 34.1406C161.979 32.8385 162.734 31.6146 162.734 30.4688C162.734 29.5833 162.109 29.1406 160.859 29.1406C159.453 29.1406 158.099 29.5312 156.797 30.3125C155.495 31.0417 154.505 32.0312 153.828 33.2812ZM162.891 26.9531C164.818 26.9531 165.781 27.7344 165.781 29.2969C165.781 31.0156 164.714 32.7604 162.578 34.5312C160.443 36.3021 157.839 37.1875 154.766 37.1875C153.62 37.1875 152.76 37.0052 152.188 36.6406C152.083 37.2656 152.031 37.7604 152.031 38.125C152.031 39.7396 152.708 41.0677 154.062 42.1094C155.417 43.099 157.526 43.5938 160.391 43.5938C168.411 43.5938 180.729 39.5833 197.344 31.5625C197.865 31.3021 198.229 31.1198 198.438 31.0156C198.75 30.8594 198.932 30.7812 198.984 30.7812C199.297 30.7812 199.453 30.9635 199.453 31.3281C199.453 31.5885 199.245 31.7969 198.828 31.9531C193.411 34.8698 186.953 37.7344 179.453 40.5469C172.005 43.3073 165.495 44.6875 159.922 44.6875C156.12 44.6875 153.307 44.1146 151.484 42.9688C149.661 41.8229 148.75 40.3385 148.75 38.5156C148.75 35.8594 150.26 33.2812 153.281 30.7812C156.25 28.2292 159.453 26.9531 162.891 26.9531Z" fill="white"/>
</svg>
