<svg width="97" height="21" viewBox="0 0 97 21" fill="none" xmlns="http://www.w3.org/2000/svg">
<path d="M6.40723 4.13281V17H4.78125V6.16309L1.50293 7.3584V5.89062L6.15234 4.13281H6.40723Z" fill="white"/>
<line x1="11" y1="10" x2="37" y2="10" stroke="white"/>
<path d="M60.4482 15.6641V17H52.0723V15.8311L56.2646 11.1641C56.7803 10.5898 57.1787 10.1035 57.46 9.70508C57.7471 9.30078 57.9463 8.94043 58.0576 8.62402C58.1748 8.30176 58.2334 7.97363 58.2334 7.63965C58.2334 7.21777 58.1455 6.83691 57.9697 6.49707C57.7998 6.15137 57.5479 5.87598 57.2139 5.6709C56.8799 5.46582 56.4756 5.36328 56.001 5.36328C55.4326 5.36328 54.958 5.47461 54.5771 5.69727C54.2021 5.91406 53.9209 6.21875 53.7334 6.61133C53.5459 7.00391 53.4521 7.45508 53.4521 7.96484H51.8262C51.8262 7.24414 51.9844 6.58496 52.3008 5.9873C52.6172 5.38965 53.0859 4.91504 53.707 4.56348C54.3281 4.20605 55.0928 4.02734 56.001 4.02734C56.8096 4.02734 57.501 4.1709 58.0752 4.45801C58.6494 4.73926 59.0889 5.1377 59.3936 5.65332C59.7041 6.16309 59.8594 6.76074 59.8594 7.44629C59.8594 7.82129 59.7949 8.20215 59.666 8.58887C59.543 8.96973 59.3701 9.35059 59.1475 9.73145C58.9307 10.1123 58.6758 10.4873 58.3828 10.8564C58.0957 11.2256 57.7881 11.5889 57.46 11.9463L54.0322 15.6641H60.4482Z" fill="white"/>
<path d="M89.4365 9.80176H90.5967C91.165 9.80176 91.6338 9.70801 92.0029 9.52051C92.3779 9.32715 92.6562 9.06641 92.8379 8.73828C93.0254 8.4043 93.1191 8.0293 93.1191 7.61328C93.1191 7.12109 93.0371 6.70801 92.873 6.37402C92.709 6.04004 92.4629 5.78809 92.1348 5.61816C91.8066 5.44824 91.3906 5.36328 90.8867 5.36328C90.4297 5.36328 90.0254 5.4541 89.6738 5.63574C89.3281 5.81152 89.0557 6.06348 88.8564 6.3916C88.6631 6.71973 88.5664 7.10645 88.5664 7.55176H86.9404C86.9404 6.90137 87.1045 6.30957 87.4326 5.77637C87.7607 5.24316 88.2207 4.81836 88.8125 4.50195C89.4102 4.18555 90.1016 4.02734 90.8867 4.02734C91.6602 4.02734 92.3369 4.16504 92.917 4.44043C93.4971 4.70996 93.9482 5.11426 94.2705 5.65332C94.5928 6.18652 94.7539 6.85156 94.7539 7.64844C94.7539 7.9707 94.6777 8.31641 94.5254 8.68555C94.3789 9.04883 94.1475 9.38867 93.8311 9.70508C93.5205 10.0215 93.1162 10.2822 92.6182 10.4873C92.1201 10.6865 91.5225 10.7861 90.8252 10.7861H89.4365V9.80176ZM89.4365 11.1377V10.1621H90.8252C91.6396 10.1621 92.3135 10.2588 92.8467 10.4521C93.3799 10.6455 93.7988 10.9033 94.1035 11.2256C94.4141 11.5479 94.6309 11.9023 94.7539 12.2891C94.8828 12.6699 94.9473 13.0508 94.9473 13.4316C94.9473 14.0293 94.8447 14.5596 94.6396 15.0225C94.4404 15.4854 94.1562 15.8779 93.7871 16.2002C93.4238 16.5225 92.9961 16.7656 92.5039 16.9297C92.0117 17.0938 91.4756 17.1758 90.8955 17.1758C90.3389 17.1758 89.8145 17.0967 89.3223 16.9385C88.8359 16.7803 88.4053 16.5518 88.0303 16.2529C87.6553 15.9482 87.3623 15.5762 87.1514 15.1367C86.9404 14.6914 86.835 14.1846 86.835 13.6162H88.4609C88.4609 14.0615 88.5576 14.4512 88.751 14.7852C88.9502 15.1191 89.2314 15.3799 89.5947 15.5674C89.9639 15.749 90.3975 15.8398 90.8955 15.8398C91.3936 15.8398 91.8213 15.7549 92.1787 15.585C92.542 15.4092 92.8203 15.1455 93.0137 14.7939C93.2129 14.4424 93.3125 14 93.3125 13.4668C93.3125 12.9336 93.2012 12.4971 92.9785 12.1572C92.7559 11.8115 92.4395 11.5566 92.0293 11.3926C91.625 11.2227 91.1475 11.1377 90.5967 11.1377H89.4365Z" fill="white"/>
</svg>
